<?xml version="1.0" encoding="UTF-8"?>
<svg id="Layer_2" data-name="Layer 2" xmlns="http://www.w3.org/2000/svg" xmlns:xlink="http://www.w3.org/1999/xlink" viewBox="0 0 108.66 108.66">
  <defs>
    <style>
      .cls-1 {
        fill: #fff;
        fill-rule: evenodd;
        stroke-width: .75px;
      }

      .cls-1, .cls-2 {
        stroke: #ebd065;
        stroke-miterlimit: 10;
      }

      .cls-2 {
        fill: url(#radial-gradient);
        stroke-width: 3px;
      }
    </style>
    <radialGradient id="radial-gradient" cx="54.33" cy="54.33" fx="-37.37" fy="54.33" r="91.7" gradientUnits="userSpaceOnUse">
      <stop offset="0" stop-color="#231f20" stop-opacity=".1"/>
      <stop offset="1" stop-color="#231f20" stop-opacity=".1"/>
    </radialGradient>
  </defs>
  <g id="Layer_1-2" data-name="Layer 1">
    <g id="Sound_Button" data-name="Sound Button">
      <circle class="cls-2" cx="54.33" cy="54.33" r="52.83"/>
      <path class="cls-1" d="m41.72,26.58c-.41,0-.76.35-.76.82v56.36c0,1.06,1.59,1.06,1.59,0V27.4c0-.47-.35-.82-.82-.82h0Zm37.14,3.7c-.41,0-.76.35-.76.76v49.02c0,1.06,1.59,1.06,1.53,0V31.05c.06-.41-.35-.76-.76-.76h0Zm-31.86,1.18c-.41,0-.76.35-.76.82v46.61c0,1.06,1.59,1.06,1.59,0v-46.61c0-.47-.35-.82-.82-.82h0Zm-10.58,1.18c-.41.06-.76.41-.76.82v44.26c0,1.06,1.59,1.06,1.53,0v-44.26c.06-.47-.35-.82-.76-.82h0Zm37.14,2.82c-.47,0-.82.35-.76.76v38.73c-.06,1.06,1.53,1.06,1.53,0v-38.73c0-.41-.35-.82-.76-.76h0Zm-10.64.76c-.41,0-.76.35-.76.82v37.09c0,1.06,1.59,1.06,1.59,0v-37.09c0-.47-.35-.82-.82-.82h0Zm5.29,1.76c-.41,0-.76.35-.76.82v33.56c0,1.06,1.59,1.06,1.59,0v-33.56c0-.47-.35-.82-.82-.82h0Zm-10.58.88c-.41,0-.76.35-.76.76v31.86c0,1.06,1.59,1.06,1.53,0v-31.86c.06-.41-.35-.76-.76-.76h0Zm-5.29,2.29c-.47,0-.82.35-.76.76v27.27c-.06,1.06,1.53,1.06,1.53,0v-27.27c0-.41-.35-.76-.76-.76h0Zm-21.22.88c-.47,0-.82.35-.82.76v25.51c0,1.12,1.59,1.12,1.59,0v-25.51c0-.41-.35-.76-.76-.76h0Zm53.01.82c-.41,0-.76.35-.76.76v23.92c0,1.06,1.59,1.06,1.59,0v-23.92c0-.41-.35-.82-.82-.76h0Zm-63.65,1c-.41,0-.77.35-.77.76v21.86c0,1.06,1.59,1.06,1.59,0v-21.86c0-.41-.35-.76-.82-.76h0Zm5.29,2.59c-.41,0-.76.35-.76.76v16.69c0,1.06,1.59,1.06,1.59,0v-16.69c0-.41-.35-.76-.82-.76h0Zm63.65,2.06c-.41,0-.76.35-.76.82v12.52c0,1.06,1.59,1.06,1.59,0v-12.52c0-.47-.35-.82-.82-.82Z"/>
    </g>
  </g>
</svg>